<?xml version="1.0" encoding="UTF-8"?>
<svg id="Layer_2" data-name="Layer 2" xmlns="http://www.w3.org/2000/svg" viewBox="0 0 705.51 261.29">
  <defs>
    <style>
      .cls-1 {
        fill: #fff;
      }
    </style>
  </defs>
  <g id="Layer_1-2" data-name="Layer 1">
    <g>
      <path class="cls-1" d="M82.32,75.51c82.19-6.64,117.46,98.01,68.04,155.15-40.49,46.82-114.65,38.66-141.11-18.31-26.83-57.78,6.81-131.49,73.06-136.84ZM70.51,87.32c-22.58,1.18-34.64,21.73-38.75,41.73-7.88,38.32,6.95,90.92,42.36,111.46,16.84,9.77,37.75,12.62,51.54-3.54,36.49-42.75,8.9-153-55.15-149.65Z"/>
      <path class="cls-1" d="M506.94,143.21c1.39.31,1.43-.47,2.09-1.23,2.53-2.92,4.54-7.34,7.47-10.25,23.58-23.42,65.77-11.71,68.68,22.93,2.23,26.5-2.02,56.09-.02,82.7.27,3.54.94,8.58,3.68,11.08,2.2,2,7.27,2.09,7.47,4.4.49,5.56-9.03,2.5-12.25,2.51-8.8.05-17.72-.12-26.6.02-3.97.06-8.05,1.95-12.04-.06l.24-3.63c8.36-2.25,10.59-6.07,11.37-14.46,1.71-18.32,1.54-52.29.08-70.76-1.18-14.99-8.68-28.5-25.46-28.5-14.7,0-23.65,10.92-24.72,24.81-1.84,24.03,1.35,50.27,0,74.54.64,4.6,1.21,9.5,5.63,12.08,1.87,1.09,8.82,2,6.13,5.56-1.5,1.98-10.69,1.26-13.65,1.23-7.77-.09-16.6-.87-24.34-.83-4.54.02-9.67,2.12-14.28-.04l.63-3.98c9.24-1.4,10.55-6.29,11.12-14.72,1.58-23.42-1.18-48.68-.12-72.29-.39-2.37-.81-4.53-2.82-6.03-2.61-1.95-8.98-1.01-8.07-4.28l38.31-29.64,1.46.75v18.09Z"/>
      <path class="cls-1" d="M387.92,119.79c74.2-8.37,97.16,92.64,39.52,130.32-56.23,36.75-112.89-23.94-94.36-82.55,7.4-23.41,29.86-44.95,54.84-47.77ZM379.08,130.87c-25.62,1.79-25.29,39.9-21.78,58.26,4.47,23.37,23.44,58.36,50.32,59.67,24.32,1.19,27.48-33.57,25.48-51.32-2.92-26.04-22.67-68.8-54.02-66.61Z"/>
      <path class="cls-1" d="M261.85,155.76c-4.11,1.74-5.03-3.22-7.46-5.46-7.04-6.5-18-4.01-24.67,1.75-5.51,4.76-7.93,10.88-8.5,18.08-1.77,22.29,1.37,46.87.04,69.41.57,3.8,1.69,8.21,5.38,10.12,2.47,1.28,6.05.5,6.29,3.35.46,5.44-9.75,2.51-12.78,2.56-7.67.11-15.21-.12-22.85-.18-3.69-.03-15.43,2.64-16.53-1.22-1.1-3.87,3.31-3.23,5.72-4.36,4.06-1.91,5.14-5.44,5.9-9.6-1.46-24.25,2.22-51.32.11-75.25-.17-1.91-.76-5.31-2.26-6.6-2.52-2.17-9.44-.59-8.71-4.34l37.91-29.28,1.83,1.13v26.94c4-4.73,5.63-10.98,9.29-16.17,6.14-8.71,19.03-17.61,30.09-16.93l1.22.99v35.06Z"/>
      <path class="cls-1" d="M312.05,240.28c.26,2.13,1.77,6.21,3.29,7.79,2.78,2.89,12.61,3.21,6.53,7.93-6.14-.04-12.18-.57-18.33-.61-5.29-.04-10.86-.08-16.25,0-2.94.04-16.59,2.81-16.61-1.8-.02-2.67,5.05-3.07,6.94-4.18,5.03-2.94,5.36-10.4,5.68-15.73,1.12-18.66,1.3-46.47,0-65.02-.22-3.06-.64-8.94-3.32-10.7s-9.37-.5-8.42-3.93l38.29-28.91,2.22.75v114.42Z"/>
      <path class="cls-1" d="M629.48,70.86l14.02-8.11-9.6,13.27,70.51,4.44,1.09,1.47-69.66,3.79-.85,1.38,7.76,11.07-13.28-6.63c-1.15,23.76-3.5,47.45-4.43,71.24-.04.9.56,2.75-.73,2.57l-4.44-73.81c-1.34-1.37-12.31,8.28-13.28,7.37l8.11-12.18c.13-.41-1.49-.8-2.03-.9-12.46-2.3-27.71-.52-40.41-3.15l-31.36-1.11,73.81-5.54-7.37-12.55,12.54,7.38c.25-23.7,4.07-47.17,4.44-70.86l1.46,10.71,3.7,60.15Z"/>
      <path class="cls-1" d="M297.88,75.46c27.88-1.52,22.05,43.55-4.28,34.89-18.56-6.11-14.86-33.85,4.28-34.89Z"/>
    </g>
  </g>
</svg>